<svg width="23" height="24" viewBox="0 0 23 24" fill="none" xmlns="http://www.w3.org/2000/svg">
<path d="M22.2845 21.8602L16.7062 15.9194C18.1405 14.1735 18.9263 11.9768 18.9263 9.68999C18.9263 4.34701 14.6811 0 9.46317 0C4.24526 0 0 4.34701 0 9.68999C0 15.033 4.24526 19.38 9.46317 19.38C11.4221 19.38 13.2888 18.775 14.8847 17.6265L20.5055 23.6124C20.7404 23.8622 21.0564 24 21.395 24C21.7155 24 22.0196 23.8749 22.2504 23.6474C22.7408 23.1641 22.7565 22.3628 22.2845 21.8602ZM9.46317 2.52782C13.32 2.52782 16.4577 5.74069 16.4577 9.68999C16.4577 13.6393 13.32 16.8522 9.46317 16.8522C5.60631 16.8522 2.46865 13.6393 2.46865 9.68999C2.46865 5.74069 5.60631 2.52782 9.46317 2.52782Z" fill="#757575"/>
</svg>
